<?xml version="1.0" encoding="UTF-8"?>
<svg width="64" height="64" version="2.0" viewBox="0 0 64 64" xmlns="http://www.w3.org/2000/svg" xmlns:cc="http://creativecommons.org/ns#" xmlns:dc="http://purl.org/dc/elements/1.1/" xmlns:rdf="http://www.w3.org/1999/02/22-rdf-syntax-ns#" xmlns:xlink="http://www.w3.org/1999/xlink">
 <defs>
  <linearGradient id="radialGradient1815" cx="34.285" cy="32" r="26.421" gradientTransform="matrix(-.79204 -1.6732 .56945 -.26957 43.217 97.991)" gradientUnits="userSpaceOnUse">
   <stop stop-color="#b14bf5" stop-opacity=".969" offset="0"/>
   <stop stop-color="#142e54" stop-opacity=".45963" offset="1"/>
   <animateTransform attributeName="gradientTransform" dur="11s" from="0" to="360" type="rotate" repeatCount="indefinite"/>
 </linearGradient>
 </defs>
 <path d="m46.265 26.678v-1.2642h2.8896v2.5284h-2.8896zm4.8762 4.679v-5.9765l3.4766 0.06471c3.7098 0.06907 4.0904 0.15204 4.9545 1.0801 0.71588 0.76888 0.77958 1.2693 0.77958 6.1242v4.6839h-2.8896v-4.3344c0-5.2303 0.07124-5.0568-2.0769-5.0568h-1.3545v9.3913h-2.8896zm-4.8349 2.4096 0.04897-3.5669 2.7993-0.10554v7.2393h-2.8973zm-11.78-0.04512v-3.612h2.8896v4.7462l1.0129-0.10455c1.3011-0.13429 2.2532-0.75472 2.7578-1.7971 0.7662-1.5827 0.28124-3.5121-1.1152-4.4367-0.68616-0.45431-0.88314-0.48868-3.1387-0.54761l-2.4065-0.06287v-2.493h2.2486c3.4064 0 4.7669 0.38561 6.107 1.7309 0.37405 0.37551 0.90231 1.1352 1.1739 1.6883 0.42113 0.85751 0.49357 1.2315 0.49206 2.5406-0.0021 1.783-0.35499 2.7451-1.4527 3.9602-1.4155 1.5668-2.7836 1.9997-6.3203 1.9997h-2.2486zm-11.739 3.0765c0-0.495 1.6287-5.655 2.0114-6.3725 0.13319-0.2497 0.40737-0.31605 1.306-0.31605 0.6256 0 1.1812 0.04375 1.2347 0.09725 0.05349 0.05352-0.17414 1.0491-0.50584 2.2124-0.3317 1.1633-0.60573 2.1761-0.60896 2.2506-0.0032 0.0745 0.80685 0.13545 1.8002 0.13545s1.806-0.02437 1.806-0.0542-0.57487-1.6755-1.2775-3.6572c-1.8087-5.1012-1.9733-5.5708-1.9733-5.6285 0-0.02826 0.71509-0.0514 1.5891-0.0514h1.5891l1.781 5.7341c0.97956 3.1538 1.8173 5.8357 1.8617 5.9599 0.06335 0.17734-1.0662 0.22575-5.2664 0.22575h-5.3471zm-7.5853-5.4243v-5.9599h2.8896v9.3913h4.1538v0.97854c0 1.6486 0.23135 1.5499-3.6314 1.5499h-3.4121zm-11.907 5.6438c0.00713-0.17383 0.51504-1.7789 1.1288-3.5669l1.1159-3.2508 1.3241-0.05338c1.2028-0.04847 1.3152-0.02362 1.2263 0.27091-0.18979 0.6288-1.1959 4.2706-1.1959 4.3288 0 0.03243 0.81271 0.05897 1.806 0.05897s1.806-0.03086 1.806-0.06854-0.73144-2.1154-1.6254-4.6172c-0.89398-2.5017-1.6254-4.5839-1.6254-4.6271 0-0.04321 0.68794-0.07849 1.5288-0.07849 1.2739 0 1.5558 0.05269 1.6907 0.31605 0.17162 0.33506 3.6435 11.277 3.6435 11.483 0 0.06642-2.4381 0.12083-5.4181 0.12083-5.0446 0-5.4172-0.02178-5.4052-0.31605z" fill="#f37726" style="font-variant-east_asian:normal;paint-order:normal"/>
 <path d="m31.124 28.055c-0.08694-0.11187-0.20371-0.38955-0.25947-0.61707-0.089-0.36312 0.03796-0.47951 1.039-0.95247 0.62721-0.29634 1.2399-0.65877 1.3616-0.8054 0.12169-0.14663 0.33321-0.26659 0.47004-0.26659 0.26961 0 0.33707 0.95827 0.13765 1.9554-0.09735 0.48677-0.17042 0.54385-0.58902 0.46013-0.26283-0.05256-0.82075 0.02253-1.2398 0.16693-0.55874 0.1925-0.80409 0.20826-0.92002 0.05911zm13.342 0.49744c-0.39964-0.9642-0.40572-1.0401-0.12185-1.5207 0.29005-0.49102 0.28517-0.51653-0.16711-0.87229-0.25624-0.20156-0.84622-0.41775-1.311-0.48041-0.46483-0.06266-1.3328-0.24011-1.9288-0.39433-0.59599-0.15422-1.937-0.30077-2.9799-0.32567-1.043-0.02491-1.874-0.1157-1.8468-0.20178 0.02723-0.08608 0.61057-0.12793 1.2963-0.093 1.0738 0.05468 1.3677-0.0021 2.1177-0.40893 0.79353-0.43047 1.1035-0.48068 3.4896-0.56516 1.4403-0.05099 3.2638-0.13807 4.0521-0.19348 2.2038-0.15491 2.8916 0.0021 3.3401 0.76238 0.49796 0.84398 0.47246 1.1427-0.16086 1.8836l-0.53446 0.62529-0.0073-0.85786-0.0073-0.85786h-1.877c-2.1814 0-2.0962-0.07728-2.0962 1.9032v1.3318l2.6187 0.10608-1.8963 1.1706v-0.44984c0-0.5762-0.36076-0.57553-0.90301 0.0014-0.23329 0.24833-0.47632 0.4515-0.54005 0.4515-0.06374 0-0.30518-0.45669-0.53653-1.0149zm5.2304 2.9388c0-0.78831 0.07996-1.0331 0.4515-1.3821l0.4515-0.42417v1.1764c0 1.0796-0.03717 1.1933-0.4515 1.3821-0.45071 0.20536-0.4515 0.20404-0.4515-0.75224zm-31.064-0.70206v-1.7237l0.62961-0.50199c0.34629-0.27609 0.67811-0.65478 0.73738-0.84152 0.06367-0.20059 0.24147-0.31744 0.43453-0.28556 0.45532 0.07519 1.0881-0.54695 1.0881-1.0698 0-0.34835 0.06993-0.41349 0.34884-0.32497 0.23617 0.07496 0.61254-0.09057 1.1653-0.51252 0.51683-0.3945 1.4493-0.8203 2.5408-1.1602 1.0165-0.31654 2.1225-0.81119 2.6945-1.2051 0.58005-0.3995 1.2762-0.70924 1.7313-0.77028 0.41863-0.05618 0.80346-0.21236 0.85517-0.34712 0.05187-0.13517 0.35133-0.24504 0.66792-0.24504 0.72624 0 2.3758-0.5763 3.6955-1.2911 1.3889-0.75228 1.7812-0.8598 4.2131-1.155 1.1603-0.14083 2.4424-0.38917 2.849-0.55187 1.3763-0.55068 4.2976-0.92124 7.567-0.95984 2.6673-0.03147 3.1825 0.0061 3.4568 0.25474 0.21331 0.19304 0.75586 0.3147 1.6036 0.3596 0.70469 0.03734 1.3581 0.11537 1.4521 0.17345 0.09397 0.05809 0.22395 0.01966 0.28884-0.0853 0.06491-0.105 0.25567-0.14719 0.42395-0.09379 0.16829 0.05338 0.7311 0.13244 1.2507 0.17562 0.62912 0.05229 1.1195 0.21838 1.4678 0.49719 0.75736 0.60621 1.2385 1.7041 0.64744 1.4773-0.149-0.0572-0.27091-0.01399-0.27091 0.09597 0 0.10996 0.08127 0.19992 0.1806 0.19992 0.38276 0 0.18915 1.4577-0.27431 2.0653-0.28373 0.37201-0.41044 0.7123-0.33673 0.90439 0.06499 0.16938 0.01407 0.62353-0.11325 1.0092-0.21082 0.63881-0.26524 0.68266-0.61143 0.49263-0.209-0.11473-1.274-0.25347-2.3666-0.30831l-1.9866-0.09971-0.0918-0.903c-0.09528-0.93728-0.57752-1.8911-1.2966-2.5645-0.47052-0.44064-1.9946-1.1378-2.4874-1.1378-0.17826 0-0.41806-0.11319-0.53288-0.25154-0.15056-0.18142-0.57208-0.23843-1.5121-0.2045-0.71683 0.02587-1.6379-0.03038-2.0467-0.12502-0.56098-0.12984-0.9435-0.10413-1.5588 0.10477-0.44846 0.15225-1.2111 0.29225-1.6947 0.3111-0.48363 0.01884-1.0593 0.145-1.2793 0.28033-0.22 0.13534-0.62635 0.24694-0.90301 0.24802-0.27666 0.0014-0.90196 0.12298-1.3896 0.2709-0.48761 0.14792-1.0933 0.26895-1.3459 0.26895-0.26762 0-0.69699 0.23032-1.0287 0.55182-0.44939 0.43556-0.80832 0.58559-1.7037 0.71217-0.84586 0.11956-1.2628 0.28339-1.6393 0.64409-0.55378 0.53056-1.5819 0.83296-2.952 0.86834-0.61754 0.01596-0.91217 0.10529-0.96894 0.29381-0.17615 0.58504-0.64106 0.7224-2.4449 0.7224h-1.7941l0.10023 0.49666c0.05513 0.27316 0.15525 0.63888 0.2225 0.8127 0.08395 0.21699 0.03523 0.31605-0.15543 0.31605-0.15274 0-0.5711 0.18286-0.92969 0.40636-2.3571 1.469-3.0925 2.0322-4.746 3.6348l-1.8512 1.7941zm13.688 1.177c-0.26896-0.87086-0.4315-1.6386-0.3612-1.706 0.31305-0.30033 3.4467-1.7942 3.7565-1.7908 0.72414 0.0079 2.8805 0.40706 3.0388 0.56242 0.09117 0.08951 0.26812 0.46048 0.39322 0.82437 0.20878 0.60731 0.19023 0.71786-0.22595 1.3468-0.74824 1.1307-0.96515 1.0662-0.96515-0.28673v-1.1682h-3.9606l-0.10294 3.7023-0.54181 0.04969c-0.53277 0.04881-0.54996 0.02327-1.0308-1.5337zm5.6362 1.8489c0-0.34516 0.17598-0.53743 0.76756-0.83864 0.42216-0.21495 1.113-0.67337 1.5351-1.0187 0.72462-0.5928 0.76756-0.60551 0.76756-0.22712 0 1.1659-1.3383 2.5323-2.48 2.5323-0.50784 0-0.59018-0.06246-0.59018-0.44783zm-16.977 0.44976c0-0.1602 2.6911-2.7909 2.7632-2.7012 0.03562 0.0443-0.12807 0.69297-0.36376 1.4415l-0.42853 1.361h-0.98547c-0.54201 0-0.98547-0.0456-0.98547-0.10127zm22.846 1.4431c-0.19988-0.32341 0.86631-1.9702 1.3949-2.1545 0.59381-0.207 0.65647-0.12115 0.54725 0.7499-0.07208 0.57484-0.20293 0.73884-0.90058 1.1288-0.93755 0.52401-0.89508 0.51276-1.0415 0.27581zm-29.779-0.31626c-0.17419-0.57116-0.35467-1.1732-0.40107-1.3379-0.05625-0.1996 0.09852-0.39063 0.46432-0.57311l0.54869-0.27372v1.6116c0 0.88637-0.06643 1.6116-0.14762 1.6116s-0.29014-0.46731-0.46432-1.0385zm6.03 4.9791c-0.97858-0.27958-1.1041-0.46082-1.0608-1.5314l0.03901-0.96447 4.0778-0.02409c2.2428-0.01324 4.6821-0.04949 5.4207-0.08049 0.73861-0.03099 1.47 0.01802 1.6254 0.10891 0.24857 0.14546 0.24511 0.16596-0.02886 0.1708-0.35718 0.0061-2.884 0.96312-3.5995 1.363-0.26365 0.14736-0.7668 0.26792-1.1181 0.26792s-0.69303 0.08786-0.7594 0.19524c-0.06636 0.10738-0.31359 0.14681-0.54938 0.08763-0.23955-0.06013-0.88554 0.05297-1.464 0.25627-1.1294 0.39696-1.6206 0.42562-2.5829 0.15069zm-7.9861 5.6073c-1.0845-0.15924-2.5959-0.86506-3.3282-1.5542-0.41396-0.38959-0.62559-0.80986-0.77836-1.5457-0.20371-0.98126-0.19291-1.0411 0.37146-2.0588 0.3197-0.57646 0.63641-1.17 0.70379-1.319 0.067389-0.149 0.27814-0.59598 0.46834-0.99331l0.34582-0.72241h3.9725l0.06009 0.52714c0.03305 0.28992-0.03506 0.86696-0.15134 1.2823-0.19256 0.68777-0.1695 0.83535 0.25849 1.6539 0.25846 0.49429 0.71825 1.1363 1.0218 1.4267l0.55184 0.52802 2.5915-0.01277c1.4253-0.0071 3.0248-0.10774 3.5543-0.22379 0.52957-0.11605 2.2199-0.4649 3.7563-0.77522 1.5364-0.31032 3.1618-0.67604 3.612-0.81272 0.45025-0.13668 1.024-0.24938 1.2751-0.25046 0.25106-0.0014 0.63413-0.1264 0.85126-0.27848 0.21714-0.15209 1.2714-0.63768 2.3429-1.0791 1.1837-0.48764 2.0925-0.9815 2.3161-1.2586 0.25827-0.32007 0.54451-0.45603 0.96003-0.45603 0.32562 0 0.76956-0.08849 0.98652-0.19665 0.26639-0.13279 0.21855-0.04696-0.14733 0.26441-0.64323 0.54736-0.34897 0.6392 0.33194 0.10359 0.26619-0.20938 0.96384-0.44689 1.6046-0.54628 1.3485-0.20917 2.0282-0.44962 2.7591-0.9761 0.8603-0.61971 0.99344-0.67616 0.99173-0.4205-0.0021 0.3193-1.9661 1.5657-2.9268 1.8575-1.0095 0.30659-1.9453 0.8495-1.9467 1.1295-5.41e-4 0.12216-0.42781 0.4673-0.9493 0.76699-1.0678 0.61363-5.5289 2.5336-7.4498 3.2062-0.69532 0.24347-1.3697 0.52982-1.4987 0.63632-0.12897 0.1065-0.45405 0.21422-0.72241 0.23938-0.26836 0.02519-1.4225 0.12609-2.5648 0.2243-1.1423 0.0982-2.4759 0.30822-2.9635 0.4667-0.48761 0.15848-1.1069 0.28815-1.3762 0.28815-0.26929 0-1.3265 0.24861-2.3494 0.55248-1.6474 0.4894-2.078 0.54673-3.771 0.50211-1.0512-0.02771-2.2948-0.10669-2.7636-0.17552z" fill="url(#radialGradient1815)" stroke-width=".073505"/>
</svg>
