<svg width="665" height="665" version="1.1" viewBox="0 0 665 665" xmlns="http://www.w3.org/2000/svg"><defs><clipPath id="a"><path d="m22.914 264.58-68.741 39.688 68.741 39.688 68.741-39.688-68.741-39.688m412.44 238.12-68.741 39.688 45.827 26.458 68.741-39.688zm-103.11-59.531-68.741 39.688 68.741 39.688 68.741-39.688zm-103.11-59.531-68.741 39.688 68.741 39.688 68.741-39.688-68.741-39.688m-103.11-59.531 68.741 39.688-68.741 39.688-68.741-39.688z"><animateMotion dur="3s" path="m0 0 103.11 59.531" repeatCount="indefinite"/></path></clipPath></defs><path d="m286.42 482.86 34.37-178.59 34.37 138.91" fill="#ee6d76" fill-opacity=".4"><animate attributeName="opacity" dur="3s" keyTimes="0;0.33;0.33;1" repeatCount="indefinite" values="0;0;1;1"/></path><g transform="translate(229.14,79.375)"><path d="m343.7-79.375-91.654 52.917v79.375l-91.654 52.917v79.375l91.654-52.917v79.375l91.654-52.917v-79.375l91.654-52.917v-79.375l-91.654 52.917z" fill="#a3c4ff"/><path d="m160.4 105.83 91.654-52.917c15.415 36.562 47.15 43.214 91.654 26.458v79.375l-91.654 52.917v-79.375l-91.654 52.917z" fill="#8ab4ff"/><path d="m252.05 52.917 91.654-52.917v79.375l-91.654 52.917z" fill="none" stroke="#808080" stroke-linecap="round" stroke-linejoin="round" stroke-width=".5"/><path d="m103.11 178.59 68.741-39.688 1e-5 79.375-68.741 39.688v-79.375l-1e-5 -1e-5" fill="#999"/><path d="m171.85 138.91-68.741-39.687-68.741 39.687 68.741 39.688 68.741-39.688" fill="#ccc"/><path d="m34.37 178.59-2e-6 -39.688 68.741 39.688v79.375l-57.284-33.073" fill="#4d4d4d"/><path d="m45.827 251.35 22.983-53.317-22.983-26.058" fill="none" stroke="#000" stroke-linecap="round" stroke-linejoin="round"/><path d="m151.3 126.6 9.0959-20.766" fill="none" stroke="#000" stroke-linecap="round" stroke-linejoin="round"/><path d="m114.53 211.71-4.2e-4 0.32166a15.275 15.275 30.037 0 0 22.913 13.249 45.896 45.896 119.99 0 0 22.914-39.707l4.2e-4 -0.32166a15.275 15.275 30.037 0 0-22.913-13.249 45.896 45.896 119.99 0 0-22.914 39.707z" fill="#f9f9f9"/><path transform="matrix(.26458 0 0 .26458 -229.14 -119.06)" d="m692.82 1e3 -346.41 200v300s-2e-5 0 0 0l-346.41 200v300l346.41-200v300l346.41-200v-300l346.41-200v-300l-346.41 200z" fill="#8ab4ff"/><path d="m-229.14 330.73 91.654-52.917c15.415 36.562 47.15 43.214 91.654 26.458v79.375l-91.654 52.917v-79.375l-91.654 52.917z" fill="#598dff"/><path d="m-137.48 277.81 91.654-52.917v79.375l-91.654 52.917z" fill="none" stroke="#808080" stroke-linecap="round" stroke-linejoin="round" stroke-width=".5"/></g><g transform="translate(229.14 119.06)" clip-path="url(#a)" fill-opacity=".75"><path d="m126.02 324.11 355.16 205.05-68.741 39.688-355.16-205.05z" fill="#ea4853"/><path d="m126.02 324.11c40.476 57.586 171.85 165.36 263.51 231.51l-332.25-191.82z" fill="#eb4651"/></g></svg>
