<?xml version="1.0" standalone="no"?>
<!DOCTYPE svg PUBLIC "-//W3C//DTD SVG 20010904//EN"
 "http://www.w3.org/TR/2001/REC-SVG-20010904/DTD/svg10.dtd">
<svg version="1.0" xmlns="http://www.w3.org/2000/svg"
 width="72.000000pt" height="72.000000pt" viewBox="0 0 72.000000 72.000000"
 preserveAspectRatio="xMidYMid meet">

<g transform="translate(0.000000,72.000000) scale(0.100000,-0.100000)"
stroke="none">
<path d="M356 689 c-3 -17 -3 -55 0 -84 l6 -52 -48 -7 c-27 -4 -59 -10 -71
-13 -20 -4 -23 -1 -23 24 0 26 -27 132 -35 141 -10 11 -48 -26 -69 -66 -27
-55 -66 -212 -66 -269 0 -38 -2 -40 -25 -35 -24 4 -25 3 -15 -23 8 -21 8 -30
-1 -36 -9 -5 -8 -14 6 -35 12 -19 14 -29 7 -32 -20 -6 -14 -29 12 -50 18 -13
22 -22 14 -30 -16 -16 0 -32 60 -59 92 -40 217 -66 294 -60 113 10 188 61 263
181 46 75 58 113 30 102 -8 -3 -15 -2 -15 3 0 5 10 12 23 16 19 6 19 8 4 12
-13 3 -15 11 -10 31 3 15 10 29 15 30 4 2 8 7 8 11 0 10 -33 10 -46 0 -7 -6
-9 1 -6 20 2 17 13 33 25 39 34 16 1 14 -40 -3 -43 -18 -43 -18 -43 -1 0 8
-18 36 -40 61 -22 25 -40 54 -40 64 0 28 -57 110 -92 131 -49 30 -74 26 -82
-11z m151 -118 c9 -25 29 -62 43 -81 55 -71 55 -71 -7 -119 -65 -50 -63 -69 3
-22 28 19 53 30 62 26 12 -4 4 -12 -28 -26 -24 -11 -53 -29 -63 -40 -17 -19
-17 -19 28 -19 53 0 60 -17 19 -49 -18 -14 -41 -21 -70 -21 -46 0 -54 9 -29
34 8 8 15 21 15 30 0 21 -39 46 -72 46 -33 0 -72 -35 -64 -57 3 -8 6 -19 6
-24 0 -5 8 -9 19 -9 10 0 24 -6 30 -13 28 -34 -149 -85 -182 -53 -17 18 -37
21 -37 6 0 -19 45 -33 101 -32 58 1 105 18 128 46 10 12 26 14 74 9 61 -5 63
-5 95 28 20 21 31 41 28 51 -3 14 2 18 24 18 24 0 29 -5 33 -33 5 -26 -3 -44
-41 -102 -51 -75 -91 -104 -179 -131 -42 -12 -63 -13 -120 -3 -128 21 -291 78
-226 79 15 1 12 6 -12 28 -28 25 -29 28 -14 43 10 10 51 22 105 29 108 16 148
34 54 25 -36 -3 -89 -9 -117 -14 -33 -4 -56 -4 -63 3 -20 20 -9 26 43 24 28
-1 88 -1 132 1 79 4 79 4 30 11 -27 5 -85 9 -127 9 -42 1 -79 5 -82 10 -11 17
46 19 138 5 50 -8 98 -14 106 -14 39 0 -22 21 -112 37 l-98 18 0 38 c0 60 29
187 57 247 l25 55 14 -30 c7 -16 13 -48 14 -70 1 -64 6 -67 86 -50 38 8 80 15
93 15 23 0 23 1 16 73 -8 82 3 83 34 2 19 -50 41 -71 41 -38 0 10 -9 38 -20
62 -27 58 -26 60 15 21 19 -18 42 -54 52 -79z m152 -237 c6 4 11 2 11 -3 0 -6
-8 -11 -19 -11 -10 0 -40 -2 -67 -5 l-49 -6 50 19 c30 11 53 15 56 9 4 -5 12
-6 18 -3z"/>
<path d="M417 482 c-25 -27 -22 -78 5 -96 69 -49 150 24 102 92 -20 28 -83 31
-107 4z m87 -11 c3 -5 -14 -11 -38 -13 -35 -2 -42 0 -34 9 12 15 64 17 72 4z
m14 -46 c7 -34 -63 -50 -88 -20 -17 20 -5 32 15 15 18 -15 45 -6 45 16 0 21
24 12 28 -11z"/>
<path d="M203 450 c-44 -18 -56 -77 -23 -110 44 -44 130 -8 130 55 0 53 -49
78 -107 55z m66 -14 c-2 -2 -17 -6 -34 -10 -22 -5 -26 -4 -15 4 14 9 59 15 49
6z m25 -35 c11 -18 -35 -61 -64 -61 -35 0 -62 36 -39 51 9 6 15 3 17 -7 5 -22
47 -14 46 9 -2 18 30 25 40 8z"/>
<path d="M420 160 c0 -13 30 -13 50 0 11 7 7 10 -17 10 -18 0 -33 -4 -33 -10z"/>
</g>
</svg>
